<svg width="199" height="67" viewBox="0 0 199 67" fill="none" xmlns="http://www.w3.org/2000/svg">
<path d="M140.54 50C140.54 46.9 138.34 44.9 134.44 44.9C132.24 44.9 130.74 45.4 129.74 45.8C129.14 46.6 128.94 47.5 128.64 48.9C130.14 48.3 131.54 47.9 133.74 47.9C135.44 47.9 136.84 48.6 136.84 50.7C136.84 52.9 135.44 54.5 128.14 58.7C128.14 59.2 128.14 60.1 128.34 61.2H140.54C140.84 60.2 141.14 59.2 141.24 58.2H130.74C135.94 56.5 140.54 54.7 140.54 50ZM171.54 50C171.54 46.9 169.34 44.9 165.44 44.9C163.24 44.9 161.74 45.4 160.74 45.8C160.14 46.6 159.94 47.5 159.64 48.9C161.14 48.3 162.54 47.9 164.74 47.9C166.44 47.9 167.84 48.6 167.84 50.7C167.84 52.9 166.44 54.5 159.14 58.7C159.14 59.2 159.14 60.1 159.34 61.2H171.54C171.84 60.2 172.14 59.2 172.24 58.2H161.74C166.94 56.5 171.54 54.7 171.54 50ZM150.44 51.3C149.64 51.9 148.94 52.5 148.34 53.3C148.94 54.1 149.64 54.7 150.44 55.3C151.24 54.7 151.94 54.1 152.54 53.3C151.94 52.5 151.24 51.8 150.44 51.3ZM150.44 45C145.84 45 142.44 47.8 142.44 52.2C142.44 58.1 148.04 61.5 150.44 61.5C152.84 61.5 158.44 58.1 158.44 52.2C158.44 47.7 155.04 45 150.44 45ZM150.44 60.2C149.44 60.2 146.24 58.1 146.24 52.5C146.24 49.7 147.84 48 150.44 48C153.04 48 154.64 49.7 154.64 52.5C154.64 58.1 151.44 60.2 150.44 60.2ZM64.4404 61.5L58.3404 58.3C61.7404 57.1 64.2404 54.6 64.2404 51.1C64.2404 46.4 60.7404 44 56.2404 44C52.0404 44 48.0404 46.7 48.0404 51.8C48.0404 56.1 51.3404 58.7 54.9404 60.6L66.7404 66.8C66.7404 64.1 66.4404 62.6 64.4404 61.5ZM57.3404 57.8L57.1404 57.7C54.9404 56.5 51.9404 54.7 51.9404 51.5C51.9404 48.5 53.8404 47.1 56.1404 47.1C58.7404 47.1 60.2404 48.9 60.2404 52.1C60.4404 54.2 59.2404 56.2 57.3404 57.8ZM185.84 50C185.84 46.9 183.64 44.9 179.74 44.9C177.54 44.9 176.04 45.4 175.04 45.8C174.44 46.6 174.24 47.5 173.94 48.9C175.44 48.3 176.84 47.9 179.04 47.9C180.74 47.9 182.14 48.6 182.14 50.7C182.14 52.9 180.74 54.5 173.44 58.7C173.44 59.2 173.44 60.1 173.64 61.2H185.84C186.14 60.2 186.44 59.2 186.54 58.2H176.14C181.14 56.5 185.84 54.7 185.84 50ZM66.0404 55.9C66.0404 59.7 67.4404 61.5 69.2404 61.5C71.5404 61.5 73.3404 59.5 74.9404 55.3V61.3H78.6404V48.7C76.9404 48.6 75.4404 48.5 73.8404 48.5C69.3404 48.4 66.0404 50.3 66.0404 55.9ZM71.2404 58.3C70.2404 58.3 69.8404 57 69.8404 53.5C69.8404 51.7 70.7404 51.2 73.2404 51.2C73.9404 51.2 74.4404 51.2 74.9404 51.2C74.1404 53.7 73.0404 58.3 71.2404 58.3ZM121.84 54.5V53.3C121.84 51.7 121.74 50.3 121.54 48.7H117.94C118.04 50.3 118.14 51.7 118.14 53.3V61.3H121.84C121.84 56.8 123.24 51.7 127.14 52.2C127.14 51.4 127.04 49.6 126.84 48.4C123.94 48.7 122.64 51.1 121.84 54.5ZM102.54 55.9C102.54 56.8 102.64 57.6 102.84 58.3H89.3404C87.5404 58.3 86.4404 57.9 86.4404 56.2V51.6H90.6404C90.9404 50.6 91.2404 49.6 91.3404 48.6H86.4404C86.4404 47.2 86.5404 45.9 86.6404 44.5C84.9404 45.1 83.7404 45.8 82.7404 46.9V48.6H80.5404C80.3404 49.8 80.3404 50.8 80.3404 51.6H82.7404V56.4C82.7404 59.8 84.7404 61.2 87.5404 61.2H105.84C108.04 61.2 109.84 59.4 111.44 55.2V61.2H115.14V48.7C113.44 48.6 111.94 48.5 110.34 48.5C105.84 48.4 102.54 50.3 102.54 55.9ZM107.74 58.3C106.74 58.3 106.34 57 106.34 53.5C106.34 51.7 107.24 51.2 109.74 51.2C110.44 51.2 110.94 51.2 111.44 51.2C110.64 53.7 109.54 58.3 107.74 58.3Z" fill="#D4B363"/>
<path d="M173.24 32.8C172.74 32.9 172.14 33.1 171.54 33.2C170.94 33.3 170.14 33.4 169.24 33.4C168.34 33.4 167.44 33.3 166.44 33C165.54 32.8 164.64 32.4 163.94 31.8C163.24 31.3 162.54 30.5 162.14 29.6C161.64 28.7 161.44 27.6 161.44 26.3C161.44 25.1 161.64 24.1 162.04 23.2C162.44 22.3 162.94 21.6 163.64 21C164.34 20.4 165.14 20 166.14 19.7C167.14 19.4 168.14 19.3 169.24 19.3C169.94 19.3 170.64 19.4 171.24 19.5C171.94 19.6 172.54 19.8 173.24 20L172.94 22.9C172.34 22.6 171.74 22.3 171.24 22.2C170.64 22 170.04 22 169.44 22C168.74 22 168.24 22.1 167.64 22.3C167.04 22.5 166.64 22.8 166.34 23.2C165.94 23.6 165.64 24.1 165.44 24.6C165.24 25.1 165.14 25.7 165.14 26.4C165.14 27.1 165.24 27.7 165.44 28.2C165.64 28.7 165.94 29.2 166.34 29.6C166.74 30 167.24 30.3 167.74 30.4C168.34 30.6 168.94 30.7 169.54 30.7C170.14 30.7 170.74 30.6 171.34 30.5C171.94 30.4 172.44 30.2 172.94 30L173.24 32.8Z" fill="#D4B363"/>
<path d="M186.24 27.9C186.24 28.8 186.14 29.6 185.84 30.3C185.54 31 185.14 31.5 184.64 32C184.14 32.4 183.44 32.8 182.74 33C182.04 33.2 181.24 33.3 180.34 33.3C179.44 33.3 178.64 33.2 177.94 33C177.24 32.8 176.54 32.5 176.04 32C175.54 31.6 175.14 31 174.84 30.3C174.54 29.6 174.44 28.8 174.44 27.9V19.5H178.04V27.3C178.04 27.8 178.04 28.2 178.14 28.6C178.24 29 178.34 29.3 178.54 29.7C178.74 30 178.94 30.2 179.24 30.4C179.54 30.6 179.94 30.7 180.44 30.7C180.94 30.7 181.34 30.6 181.64 30.4C181.94 30.2 182.14 30 182.34 29.7C182.54 29.4 182.64 29 182.74 28.6C182.84 28.2 182.84 27.8 182.84 27.3V19.5H186.44V27.9H186.24Z" fill="#D4B363"/>
<path d="M188.04 19.5H192.34C194.44 19.5 195.94 19.9 196.94 20.6C197.94 21.3 198.44 22.5 198.44 24C198.44 25.4 197.94 26.5 197.04 27.2C196.14 28 194.74 28.4 193.04 28.4H191.64V33.2H188.04V19.5ZM191.74 25.8H192.64C192.94 25.8 193.24 25.8 193.54 25.7C193.84 25.6 194.04 25.5 194.24 25.4C194.44 25.3 194.64 25.1 194.74 24.8C194.84 24.6 194.94 24.3 194.94 23.9C194.94 23.5 194.84 23.3 194.74 23C194.64 22.8 194.44 22.6 194.24 22.4C194.04 22.3 193.84 22.2 193.54 22.1C193.24 22 192.94 22 192.64 22H191.74V25.8Z" fill="#D4B363"/>
<path d="M85.6404 19.5H89.3404L91.1404 29.9L92.9404 19.5H97.5404L99.5404 29.9L101.34 19.5H104.84L101.84 33.1H97.1404L95.2404 22.6H95.1404L93.3404 33.1H88.6404L85.6404 19.5Z" fill="#D4B363"/>
<path d="M104.94 26.3C104.94 25.2 105.04 24.2 105.34 23.4C105.64 22.5 106.04 21.8 106.64 21.2C107.24 20.6 107.94 20.1 108.74 19.8C109.64 19.5 110.54 19.3 111.74 19.3C112.84 19.3 113.84 19.5 114.74 19.8C115.64 20.1 116.34 20.6 116.84 21.2C117.44 21.8 117.84 22.5 118.14 23.4C118.44 24.3 118.54 25.3 118.54 26.3C118.54 27.4 118.44 28.4 118.14 29.2C117.84 30.1 117.44 30.8 116.84 31.4C116.24 32 115.54 32.5 114.74 32.8C113.84 33.1 112.94 33.3 111.84 33.3C110.74 33.3 109.74 33.1 108.94 32.8C108.14 32.5 107.34 32 106.84 31.4C106.24 30.8 105.84 30 105.54 29.2C105.14 28.3 104.94 27.4 104.94 26.3ZM108.74 26.3C108.74 26.9 108.84 27.4 108.94 27.9C109.04 28.4 109.24 28.9 109.44 29.3C109.64 29.7 110.04 30 110.44 30.3C110.84 30.5 111.34 30.7 111.84 30.7C112.34 30.7 112.84 30.6 113.24 30.3C113.64 30.1 113.94 29.7 114.24 29.3C114.44 28.9 114.64 28.4 114.74 27.9C114.84 27.4 114.94 26.8 114.94 26.3C114.94 25.7 114.84 25.2 114.74 24.6C114.64 24.1 114.44 23.6 114.24 23.2C114.04 22.8 113.64 22.5 113.24 22.3C112.84 22.1 112.34 21.9 111.84 21.9C111.34 21.9 110.84 22 110.44 22.3C110.04 22.5 109.74 22.8 109.44 23.2C109.24 23.6 109.04 24.1 108.94 24.6C108.74 25.1 108.74 25.7 108.74 26.3Z" fill="#D4B363"/>
<path d="M120.04 19.5H126.54C127.14 19.5 127.74 19.6 128.24 19.7C128.74 19.8 129.24 20 129.64 20.3C130.04 20.6 130.34 20.9 130.54 21.4C130.74 21.8 130.84 22.3 130.84 22.9C130.84 23.8 130.64 24.6 130.24 25.1C129.84 25.7 129.14 26.1 128.24 26.3C128.54 26.4 128.74 26.5 128.94 26.7C129.14 26.9 129.24 27.1 129.44 27.3C129.54 27.6 129.74 27.8 129.84 28.2C129.94 28.5 130.14 28.9 130.24 29.3L131.54 33H127.74L126.94 30.5C126.74 29.9 126.54 29.4 126.44 29.1C126.24 28.7 126.14 28.4 125.94 28.2C125.74 28 125.54 27.8 125.34 27.7C125.14 27.6 124.84 27.6 124.44 27.6H123.64V33H120.04V19.5ZM123.64 25.1H124.64C124.94 25.1 125.24 25.1 125.54 25.1C125.84 25.1 126.14 25 126.44 24.9C126.74 24.8 126.94 24.6 127.04 24.4C127.24 24.2 127.34 23.9 127.34 23.5C127.34 23.2 127.24 22.9 127.14 22.7C126.94 22.5 126.84 22.3 126.54 22.2C126.34 22.1 126.04 22 125.74 22C125.44 22 125.04 21.9 124.74 21.9H123.74V25.1H123.64Z" fill="#D4B363"/>
<path d="M133.04 19.5H136.74V30.4H142.34V33.1H133.04V19.5Z" fill="#D4B363"/>
<path d="M143.64 19.5H148.64C149.84 19.5 150.94 19.6 151.94 19.8C152.94 20 153.74 20.4 154.44 20.9C155.14 21.4 155.74 22.1 156.14 23C156.54 23.9 156.74 25 156.74 26.3C156.74 27.6 156.54 28.6 156.14 29.5C155.74 30.4 155.14 31.1 154.44 31.6C153.74 32.1 152.84 32.5 151.84 32.8C150.84 33 149.74 33.2 148.64 33.2H143.64V19.5ZM147.24 30.4H148.64C150.04 30.4 151.04 30.1 151.74 29.4C152.44 28.7 152.84 27.7 152.84 26.3C152.84 24.9 152.44 23.9 151.74 23.2C151.04 22.5 149.94 22.2 148.64 22.2H147.24V30.4Z" fill="#D4B363"/>
<path fill-rule="evenodd" clip-rule="evenodd" d="M41.7404 19.5V33.1H45.9404V28.2H49.0404L50.0404 25.2H45.9404V22.4H51.0404L52.1404 19.5H41.7404Z" fill="#D4B363"/>
<path d="M57.6404 19.5H53.4404V33.1H57.6404V19.5Z" fill="#D4B363"/>
<path fill-rule="evenodd" clip-rule="evenodd" d="M60.6404 19.5V33.1H64.8404V28.2H67.9404L69.0404 25.2H64.8404V22.4H70.0404L71.0404 19.5H60.6404Z" fill="#D4B363"/>
<path fill-rule="evenodd" clip-rule="evenodd" d="M83.2404 33.1H78.9404L78.3404 31.3H73.5404L73.0404 33.1H68.8404L73.8404 19.5H78.2404L83.2404 33.1ZM77.6404 28.6L75.9404 23L74.3404 28.7H77.6404V28.6Z" fill="#D4B363"/>
<path d="M3.34044 12.7C3.24044 12.7 3.24044 12.7 3.14044 12.7C3.24044 13.1 3.44044 13.5 3.84044 13.7C3.94044 13.6 3.94044 13.5 3.94044 13.3C3.94044 12.9 3.64044 12.7 3.34044 12.7Z" fill="#D4B363"/>
<path d="M3.24042 11.6C3.34042 11.6 3.44042 11.7 3.44042 11.7C3.74042 11.7 4.04042 11.4 4.04042 11.1C4.04042 11 4.04042 10.9 3.94042 10.8C3.64042 10.9 3.44042 11.3 3.24042 11.6Z" fill="#D4B363"/>
<path d="M31.0404 15.5C31.0404 14.6 31.0404 13.1 30.4404 11C29.7404 8.6 28.2404 6.1 28.2404 6.1L28.1404 6C27.8404 5.5 27.3404 5.1 26.9404 4.8C26.3404 4.4 25.8404 4.3 25.3404 4.3C24.8404 4.3 24.5404 4.5 24.2404 4.7C24.0404 4.8 23.5404 5.2 22.8404 5.3C22.4404 5.3 21.9404 5.3 21.5404 5.2C20.6404 5 19.9404 4.6 19.1404 4.1C17.6404 3.2 16.2404 2.3 14.5404 1.7C14.3404 1.6 13.7404 1.4 12.6404 1.6C11.6404 1.8 10.5404 2.4 9.84043 2.9C9.14043 3.4 8.44043 3.9 7.74043 4.4C7.04043 5 6.44043 5.6 5.94043 6.2C6.94043 4.7 8.24043 3.6 9.64043 2.6C10.0404 2.3 11.2404 1.6 12.6404 1.2C13.8404 0.9 14.5404 1.3 14.6404 1.3C15.6404 1.7 16.5404 2.2 17.4404 2.7C18.8404 3.4 20.2404 3.2 21.5404 3C23.7404 2.7 25.8404 2.3 28.0404 5.9C25.7404 1.6 25.6404 2.5 24.1404 2.2C24.0404 2.2 24.0404 2.2 23.9404 2.2C22.2404 1.8 19.2404 0.7 17.8404 0.2C17.6404 0 17.2404 0 16.8404 0C15.0404 0 12.0404 0.8 9.94043 1C9.34043 1.1 8.84043 1.2 8.44043 1.3C7.24043 1.8 7.04043 2.6 6.54043 3.2C6.24043 3.6 6.04043 3.7 5.74043 3.7C3.74043 4.4 -0.859574 10.1 0.140426 18.1C0.240426 18.9 0.340426 19.6 0.540426 20.4C2.54043 28 8.94043 38.2 10.5404 41C9.34043 43.7 6.94043 49.2 6.14043 54.4C6.14043 54.6 5.94043 55.8 5.94043 56.8C5.84043 59.4 6.34043 61.8 7.84043 63.6C7.84043 63.6 8.84043 64.9 10.7404 65.5C12.0404 66.1 13.0404 65.7 14.0404 65.6C14.4404 65.9 14.9404 66.1 15.3404 66.2C15.4404 66.2 15.5404 66.3 15.6404 66.3C16.1404 65.9 16.7404 65.4 17.1404 64.8C17.0404 64.8 16.8404 64.5 16.7404 64.2C16.7404 63.9 16.8404 63.7 17.1404 63.5C17.3404 63.3 17.6404 63.2 17.8404 63C17.9404 62.9 18.0404 62.7 18.0404 62.5C18.0404 62.3 17.9404 62.3 17.7404 62.3C17.6404 62.3 17.5404 62.3 17.5404 62.4C17.5404 62.2 17.8404 62 17.9404 62C18.2404 61.9 18.4404 61.9 18.5404 62C18.7404 62.1 18.7404 62.3 18.6404 62.6C18.5404 62.8 18.4404 63 18.2404 63.2C18.2404 63.3 18.1404 63.3 18.0404 63.4C17.9404 63.6 17.7404 63.9 17.7404 64L17.8404 63.9C18.2404 63.5 18.5404 63.2 18.9404 62.8C18.9404 62.8 18.9404 62.8 19.0404 62.7C19.0404 62.8 19.0404 62.8 19.0404 62.8C18.9404 63 18.8404 63.3 18.7404 63.5C18.6404 63.8 18.5404 64 18.3404 64.3C18.5404 64.2 18.7404 63.9 19.0404 63.5C19.1404 63.3 19.2404 63.1 19.3404 63C19.4404 62.9 19.5404 62.7 19.6404 62.7C19.8404 62.5 20.1404 62.5 20.2404 62.7C20.3404 62.8 20.4404 63 20.3404 63.3C20.3404 63.4 20.2404 63.6 20.1404 63.8C20.1404 63.7 20.1404 63.7 20.1404 63.7C20.1404 63.5 20.0404 63.4 19.8404 63.5C19.6404 63.6 19.4404 63.8 19.3404 64C19.2404 64.2 19.2404 64.4 19.1404 64.6C19.0404 64.8 18.9404 65.1 18.6404 65.3C18.2404 65.6 17.7404 65.6 17.3404 65.4C16.8404 65.9 16.4404 66.4 15.9404 66.8C16.1404 66.8 16.2404 66.9 16.4404 66.9C16.5404 66.8 16.7404 66.6 16.9404 66.5C17.3404 66.1 17.7404 65.9 18.3404 65.9C18.2404 66 18.1404 66.1 18.0404 66.2C17.9404 66.3 17.8404 66.4 17.7404 66.5C17.6404 66.6 17.4404 66.8 17.3404 66.9C17.3404 66.9 17.2404 66.9 17.2404 67C17.3404 67 17.4404 67 17.5404 67C17.9404 66.4 18.6404 65.9 19.3404 65.7C19.5404 65.6 19.7404 65.7 19.9404 65.7C20.1404 65.7 20.2404 65.8 20.4404 65.8C20.6404 65.8 20.9404 65.7 21.2404 65.6C21.5404 65.5 21.7404 65.2 21.8404 64.9C21.9404 64.6 21.9404 64.4 21.7404 64.3C21.5404 64.2 21.1404 64.3 20.9404 64.7C20.8404 64.8 20.9404 65.1 20.9404 65.1C21.0404 65.1 21.0404 65.1 21.2404 65C21.2404 65 21.2404 65 21.3404 65V65.1C21.2404 65.2 21.1404 65.4 21.0404 65.4C20.8404 65.5 20.8404 65.4 20.7404 65.4C20.3404 65.1 20.6404 64.5 20.8404 64.2C21.1404 63.8 21.8404 64 22.0404 64.1C22.0404 64.1 22.0404 64.1 22.1404 64.1C22.2404 63.9 22.3404 63.8 22.4404 63.6C22.5404 63.7 22.5404 63.9 22.4404 64C22.3404 64.2 22.3404 64.4 22.2404 64.5C22.3404 64.4 22.5404 64.3 22.6404 64.2C22.5404 64.7 22.2404 65 21.9404 65.3C22.0404 65.3 22.1404 65.3 22.1404 65.4C21.9404 65.8 21.6404 66 21.3404 66.1C21.1404 66.1 20.9404 66.1 20.7404 66.1C20.4404 66.1 20.1404 66 19.7404 66C19.3404 66 18.8404 66.2 18.3404 66.5C18.1404 66.6 18.0404 66.8 17.9404 66.9H18.0404C18.1404 66.9 18.2404 66.9 18.3404 66.9C18.8404 66.6 19.4404 66.4 19.9404 66.4C20.2404 66.4 20.5404 66.4 20.6404 66.6C21.3404 66.4 22.0404 66.1 22.4404 65.9C24.3404 65.3 25.2404 64.1 25.8404 62.4C26.2404 61.1 26.9404 58.7 26.1404 55.2C26.1404 55.3 26.0404 55.3 25.9404 55.4C25.7404 55.5 25.5404 55.4 25.4404 55.3C25.3404 55.1 25.2404 54.9 25.0404 54.7C25.3404 54.7 25.5404 54.7 25.7404 54.9C25.8404 55 25.9404 55 26.0404 55C25.9404 54.7 25.9404 54.5 25.8404 54.2C25.7404 54.1 25.6404 54 25.5404 53.9C25.4404 54.1 25.3404 54.3 25.0404 54.4C24.9404 54 24.8404 53.6 24.3404 53.5C24.3404 53.5 24.3404 53.4 24.4404 53.4C24.7404 53.2 25.1404 53.2 25.5404 53.2C25.4404 53 25.3404 52.7 25.2404 52.4C24.9404 52.5 24.6404 52.6 24.4404 52.7C24.5404 52.4 24.8404 52.1 25.0404 51.9C24.3404 50.3 23.3404 48.2 21.8404 45.5C21.7404 45.5 21.7404 45.5 21.7404 45.5C21.4404 45.4 21.2404 45.5 21.2404 45.8C21.2404 46.1 21.4404 46.4 21.7404 46.7C21.9404 46.9 22.2404 47 22.4404 47.2C22.7404 47.4 23.0404 47.7 23.1404 48.1C23.3404 48.8 23.1404 49.2 22.8404 49.6C22.8404 49.6 22.9404 48.8 22.3404 48.2C22.1404 48 21.9404 47.7 21.6404 47.5C21.2404 47.1 20.8404 46.8 20.5404 46.4C20.4404 46.3 20.3404 46.2 20.3404 46C20.0404 45.5 20.2404 45.1 20.4404 45C20.6404 44.9 20.9404 44.9 21.2404 45.1C21.4404 45.2 21.6404 45.4 21.7404 45.6C21.1404 44.5 20.4404 43.3 19.7404 41.9C21.9404 37.8 27.6404 27.7 28.7404 24.8C29.1404 24.1 31.0404 19.7 31.0404 15.5ZM6.14043 7.3L6.74043 8.3L5.74043 8.9L5.14043 7.9L6.14043 7.3ZM4.54043 17.4L3.74043 16.6L4.54043 15.8L5.34043 16.6L4.54043 17.4ZM4.84043 14.7C3.44043 14.7 2.34043 13.6 2.34043 12.2C2.34043 10.8 3.44043 9.7 4.84043 9.7C6.24043 9.7 7.34043 10.8 7.34043 12.2C7.34043 13.6 6.24043 14.7 4.84043 14.7ZM25.2404 54.8C25.4404 54.9 25.5404 55 25.6404 55.1C25.7404 55.2 25.8404 55.4 26.1404 55.3C26.0404 55.5 25.8404 55.7 25.6404 55.7C25.5404 55.7 25.5404 55.7 25.4404 55.7C25.3404 55.6 25.2404 55.2 25.2404 54.8ZM25.1404 55.6C25.3404 55.8 25.5404 55.9 25.6404 56.2C25.6404 56.3 25.6404 56.4 25.5404 56.4H25.4404C25.4404 56.4 25.3404 56.4 25.3404 56.3C25.1404 56.2 25.1404 55.9 25.1404 55.6ZM9.54043 22.4C9.14043 21.1 8.74043 19.8 8.54043 18.5C7.84043 15 8.14043 12.9 9.54043 10C9.54043 9.9 9.64043 9.9 9.64043 9.8C10.2404 9.4 12.3404 8.5 15.2404 9.2C17.8404 9.9 19.2404 11.7 19.8404 13.5C21.4404 17.9 18.0404 26.5 15.0404 32.7C12.8404 29.1 10.8404 25.7 9.54043 22.4ZM17.5404 43.6C17.3404 43.3 17.1404 43.1 17.1404 42.9C17.1404 42.8 17.1404 42.8 17.2404 42.8C17.4404 42.8 17.6404 42.9 17.9404 43.1C18.1404 43.3 18.4404 43.5 18.6404 43.7C18.6404 43.6 18.5404 43.6 18.5404 43.5C18.2404 43.1 17.9404 42.9 17.5404 42.7C17.3404 42.6 17.1404 42.4 17.0404 42.3C17.0404 42.2 17.0404 42.1 17.0404 42.1C17.1404 42 17.3404 42.1 17.5404 42.3C17.7404 42.5 17.8404 42.7 18.0404 42.9C18.2404 42.9 18.3404 43 18.5404 43.2C18.6404 43.4 18.7404 43.6 18.8404 43.8C18.8404 43.9 18.9404 43.9 19.0404 44C19.1404 44.1 19.2404 44.2 19.3404 44.3C19.5404 44.6 19.4404 45 19.3404 45.1C19.2404 45.2 19.1404 45.3 19.0404 45.3C18.9404 45.3 18.7404 45.3 18.5404 45.2C18.3404 45.1 18.2404 45 18.1404 44.8L18.0404 44.7C17.8404 44.6 17.7404 44.5 17.5404 44.4C17.2404 44.2 17.1404 44 17.1404 43.8C16.9404 43.7 16.7404 43.5 16.5404 43.4C16.3404 43.2 16.2404 43 16.2404 42.9C16.4404 42.6 16.9404 43.2 17.0404 43.4C17.2404 43.7 17.5404 44 17.8404 44.3L17.9404 44.4C17.8404 44 17.6404 43.8 17.5404 43.6ZM18.0404 42.4C17.8404 42.1 17.5404 41.7 17.5404 41.5C17.5404 41.4 17.5404 41.3 17.7404 41.3C17.8404 41.3 17.9404 41.4 17.9404 41.5C18.0404 41.7 18.0404 41.8 18.0404 41.9C17.9404 42.1 17.9404 42.2 18.0404 42.4ZM21.3404 50C20.9404 49.9 20.7404 49.6 20.5404 49.2C20.4404 48.8 20.3404 48.4 20.1404 48C20.0404 47.8 19.7404 47.5 19.5404 47.5C19.3404 47.5 19.1404 47.6 19.1404 47.8C19.1404 47.9 19.1404 48 19.1404 48.2C18.9404 48.1 18.7404 47.7 18.7404 47.4C18.7404 47 18.8404 46.7 19.0404 46.5C19.2404 46.3 19.5404 46.3 19.8404 46.6C20.0404 46.8 20.3404 47.1 20.5404 47.4C20.8404 47.8 21.0404 48.3 21.2404 48.8C21.4404 49.2 21.6404 49.5 21.9404 49.7C22.0404 49.8 22.1404 49.8 22.2404 49.9C21.9404 50 21.6404 50.1 21.3404 50ZM23.2404 51.4C23.3404 51.7 23.4404 52 23.5404 52.2C23.4404 52.2 23.3404 52.3 23.2404 52.3C23.1404 52.3 23.0404 52.3 22.9404 52.3C22.6404 52.3 22.4404 52.2 22.3404 51.9C22.1404 51.4 21.9404 50.8 21.7404 50.2C21.9404 50.2 22.0404 50.2 22.1404 50.2C22.6404 50.5 23.0404 50.8 23.2404 51.4ZM18.4404 48.5C18.7404 48.7 19.2404 49 19.3404 49.3C19.5404 49.8 19.1404 50.3 18.7404 50.3C19.1404 49.7 18.9404 49 18.4404 48.5ZM16.6404 45.5C16.7404 45.7 16.9404 45.9 17.1404 45.8C17.2404 45.8 17.3404 45.7 17.2404 45.6C17.2404 45.5 17.1404 45.4 17.0404 45.3C16.9404 45.2 16.8404 45.3 16.8404 45.3C16.8404 45.1 16.8404 45.1 16.9404 45.1C17.1404 45.1 17.4404 45.4 17.4404 45.6C17.4404 45.8 17.3404 46 17.2404 46.1C17.0404 46.2 16.7404 46.1 16.6404 45.9C16.5404 45.8 16.4404 45.7 16.3404 45.6C16.2404 45.6 16.1404 45.6 16.1404 45.6C16.1404 45.6 16.0404 45.3 16.2404 45.1C16.1404 45 16.1404 45 16.0404 45C15.8404 44.9 15.8404 44.8 15.9404 44.7C16.0404 44.7 16.0404 44.6 16.1404 44.6C16.2404 44.6 16.3404 44.6 16.4404 44.5C16.3404 44.4 16.2404 44.3 16.2404 44.2L16.3404 44.1C16.4404 44.1 16.6404 44.1 16.8404 44.2C17.1404 44.4 17.4404 44.6 17.7404 44.8C18.3404 45.2 18.8404 45.6 19.3404 45.4V45.5C19.1404 45.7 18.8404 45.9 18.4404 45.7C18.0404 45.5 17.6404 44.9 17.2404 44.7C17.0404 44.6 16.8404 44.6 16.6404 44.6C16.4404 44.7 16.4404 44.9 16.4404 45.1C16.5404 45.3 16.5404 45.4 16.6404 45.5ZM15.8404 43.7C15.8404 43.2 16.6404 43.5 17.0404 43.8C16.9404 43.8 16.7404 43.8 16.6404 43.8C16.5404 43.8 16.4404 43.9 16.3404 44H16.2404C16.0404 44 15.8404 44 15.8404 43.7ZM16.5404 42.3C16.4404 42.3 16.4404 42.3 16.3404 42.2C16.4404 42.3 16.4404 42.3 16.5404 42.3C16.4404 42.5 16.3404 42.5 16.2404 42.5C16.1404 42.5 16.0404 42.5 15.9404 42.4C15.8404 42.3 15.6404 42.2 15.5404 42.1C15.5404 42 15.6404 41.8 15.7404 41.8C15.5404 41.6 15.3404 41.5 15.2404 41.2C15.1404 41 15.0404 40.8 15.0404 40.7C15.0404 40.6 15.1404 40.6 15.1404 40.7C15.2404 40.8 15.4404 40.9 15.6404 41.1C15.8404 41.3 15.9404 41.5 16.0404 41.7C16.0404 41.6 16.2404 41.4 16.3404 41.4C16.3404 41.5 16.4404 41.6 16.4404 41.7C16.4404 41.8 16.5404 41.9 16.6404 42C16.7404 42.2 16.6404 42.2 16.5404 42.3ZM10.8404 62.2C10.6404 62.2 10.4404 62.2 10.2404 62.2C8.44043 61.9 7.64043 60 7.54043 59.7C6.74043 57.4 6.94043 52.7 11.1404 42.2C11.5404 43.1 11.9404 44 12.1404 44.4C14.5404 49.3 15.1404 54 15.1404 56.4C15.0404 58.6 13.6404 62.2 10.8404 62.2ZM14.0404 62.1C14.3404 62.1 14.4404 62.3 14.6404 62.4V62.3C15.0404 62.6 15.2404 62.9 15.3404 63.3C15.3404 63.6 15.1404 64.2 14.9404 64.3C14.8404 63.5 14.5404 62.9 13.6404 62.5C13.6404 62.5 13.9404 62.5 14.1404 62.5C14.1404 62.4 14.1404 62.2 14.0404 62.1ZM13.4404 65.4C13.5404 65.3 13.5404 65.3 13.6404 65.2C13.5404 65.1 13.3404 64.9 13.3404 64.9C13.5404 64.9 13.6404 64.9 13.8404 64.9V64.8C14.6404 64.9 15.3404 65.6 15.4404 66C14.8404 65.8 14.2404 65.4 13.4404 65.4ZM16.0404 65.3C15.8404 65.4 15.7404 65.6 15.5404 65.7C15.5404 65.7 15.4404 65.6 15.3404 65.5C15.1404 65.3 15.1404 65 15.3404 64.9C15.6404 64.6 15.9404 64.4 16.3404 64.1C16.3404 64.2 16.3404 64.3 16.4404 64.4C16.5404 64.7 16.4404 65 16.0404 65.3ZM16.6404 62.1C16.3404 62.3 15.7404 62.1 15.7404 61.8C15.7404 61.6 15.9404 61.5 16.0404 61.4C16.0404 61.5 16.0404 61.6 16.0404 61.6C16.1404 61.7 16.2404 61.7 16.3404 61.6C16.4404 61.5 16.6404 61.3 16.6404 61.2C16.6404 61 16.4404 60.8 16.2404 60.8C15.8404 60.7 15.5404 61 15.4404 61.4C15.3404 61.7 15.5404 61.9 15.6404 62.1C15.7404 62.4 16.1404 62.8 16.2404 63.1C16.5404 63.8 15.9404 64.5 14.9404 64.8C14.8404 64.8 14.5404 64.9 14.5404 64.8V64.7C14.8404 64.7 15.1404 64.6 15.3404 64.4C15.6404 64.1 15.8404 63.8 15.8404 63.5C15.8404 63.1 15.6404 62.8 15.3404 62.6C15.1404 62.3 14.9404 62.1 14.7404 61.8C14.5404 61.5 14.5404 61.2 14.8404 60.9C14.9404 61 14.9404 61 15.0404 61.1C15.1404 60.9 15.1404 60.8 15.2404 60.6C15.3404 60.4 15.4404 60.3 15.6404 60.3C15.6404 60.5 15.7404 60.6 15.7404 60.7C15.9404 60.4 16.1404 60.2 16.4404 60.2C16.4404 60.3 16.3404 60.5 16.2404 60.6C16.2404 60.6 16.2404 60.6 16.3404 60.6C16.6404 60.7 16.7404 60.8 16.8404 61.2C17.0404 61.5 16.9404 61.9 16.6404 62.1ZM16.2404 50.8C16.3404 50.7 16.5404 50.7 16.6404 50.6C16.4404 50.4 16.3404 50.3 16.1404 50.1C16.0404 49.9 15.8404 49.7 15.9404 49.4C16.1404 49.4 16.3404 49.5 16.5404 49.5C16.3404 49.1 16.1404 48.7 16.3404 48.3C16.4404 48.4 16.6404 48.6 16.7404 48.7L16.8404 48.6C17.1404 48.3 17.4404 48.2 17.8404 48.4C18.2404 48.6 18.4404 48.9 18.4404 49.3C18.5404 49.8 18.1404 50.2 17.7404 50.1C17.5404 50 17.3404 49.7 17.4404 49.5C17.5404 49.6 17.6404 49.7 17.7404 49.6C17.8404 49.6 17.9404 49.4 17.9404 49.3C17.9404 49.1 17.7404 48.8 17.6404 48.7C17.3404 48.6 17.0404 48.7 16.8404 48.9C16.5404 49.4 16.7404 49.9 17.1404 50.2C17.4404 50.4 17.8404 50.4 18.1404 50.4C18.5404 50.4 19.0404 50.3 19.4404 50.4C20.5404 50.5 21.4404 51.4 21.1404 52.7C21.1404 52.9 20.9404 53.1 20.8404 53.3L20.7404 53.2C20.9404 52.8 21.0404 52.4 20.8404 52C20.7404 51.5 20.4404 51 19.9404 50.9C19.4404 50.7 18.9404 50.8 18.4404 50.9C18.0404 51 17.5404 51.1 17.1404 51.2C16.8404 51.5 16.4404 51.3 16.2404 50.8ZM17.7404 53.4C17.7404 53.4 17.9404 53 17.9404 52.7C17.7404 52.7 17.5404 52.7 17.3404 52.7C17.5404 52.4 17.8404 52.3 18.1404 52C18.0404 52 18.0404 51.9 17.9404 51.9C18.5404 51.5 19.0404 51.3 19.6404 51.5C20.0404 51.6 20.7404 52.1 20.8404 52.4C19.8404 52.3 18.8404 52.4 17.7404 53.4ZM21.9404 60.7C21.8404 60.7 21.8404 60.7 21.7404 60.8C21.7404 60.9 21.6404 61 21.6404 61.1C21.6404 61.3 21.4404 61.6 21.2404 61.6C21.1404 61.6 20.9404 61.5 20.9404 61.4C20.8404 61.2 21.0404 60.8 21.1404 60.7C21.2404 60.7 21.2404 60.7 21.3404 60.8C21.2404 60.8 21.2404 60.9 21.2404 60.9C21.2404 61 21.2404 61.1 21.2404 61.1C21.2404 61.2 21.3404 61.2 21.4404 61.2C21.5404 61.1 21.6404 61 21.6404 60.8C21.6404 60.7 21.6404 60.6 21.6404 60.6C21.5404 60.4 21.4404 60.3 21.3404 60.4C21.2404 60.4 21.0404 60.5 20.9404 60.7C20.7404 61 20.6404 61.5 20.5404 61.8C20.3404 62.1 20.1404 62.1 19.8404 62C19.7404 62 19.4404 61.9 19.3404 61.9C19.0404 61.8 18.8404 61.7 18.8404 61.4C18.8404 61.1 19.0404 60.5 18.9404 60.2C18.9404 60 18.8404 59.9 18.7404 59.8C18.6404 59.7 18.4404 59.8 18.3404 59.9C18.3404 59.9 18.2404 60 18.2404 60.1C18.1404 60.3 18.1404 60.5 18.2404 60.6C18.3404 60.7 18.3404 60.7 18.4404 60.6C18.5404 60.5 18.5404 60.4 18.5404 60.4C18.5404 60.3 18.5404 60.3 18.4404 60.2C18.5404 60.1 18.5404 60.1 18.6404 60.2C18.7404 60.3 18.6404 60.8 18.5404 60.9C18.4404 61 18.2404 61 18.1404 61C18.0404 60.9 17.9404 60.6 18.0404 60.4C18.0404 60.3 18.1404 60.2 18.1404 60.1C18.1404 60 18.0404 60 18.0404 59.9C18.0404 59.9 18.1404 59.7 18.4404 59.8C18.4404 59.7 18.4404 59.7 18.4404 59.6C18.4404 59.4 18.4404 59.4 18.5404 59.4C18.6404 59.4 18.6404 59.4 18.6404 59.5C18.7404 59.5 18.7404 59.6 18.8404 59.7V59.6C18.8404 59.5 18.8404 59.5 18.9404 59.4C18.9404 59.4 19.0404 59.4 19.0404 59.5C19.1404 59.6 19.2404 59.7 19.2404 59.9C19.3404 60.1 19.4404 60.3 19.4404 60.5V60.4C19.4404 60.1 19.6404 59.9 19.8404 59.8C19.8404 59.7 19.8404 59.6 19.8404 59.6C19.8404 59.5 19.8404 59.4 19.7404 59.3C19.8404 59.2 20.0404 59.3 20.1404 59.4C20.1404 59.2 20.1404 59 20.1404 58.7C20.1404 58.5 20.2404 58.3 20.3404 58.1C20.3404 58.1 20.4404 58 20.4404 58.1C20.5404 58.2 20.5404 58.4 20.5404 58.6C20.5404 58.9 20.5404 59.1 20.4404 59.3C20.5404 59.3 20.7404 59.3 20.7404 59.4C20.6404 59.6 20.6404 59.7 20.5404 59.8V59.9L20.6404 60.1C20.7404 60.2 20.7404 60.4 20.6404 60.6C20.6404 60.7 20.6404 60.7 20.5404 60.8C20.6404 60.6 20.8404 60.4 20.9404 60.3C21.0404 60.2 21.1404 60.1 21.2404 60.1C21.2404 60.1 21.2404 60.1 21.3404 60.1C21.3404 60.2 21.3404 60.2 21.3404 60.3C21.3404 60.3 21.3404 60.3 21.3404 60.4C21.4404 60.4 21.5404 60.3 21.5404 60.3C21.6404 60.3 21.6404 60.3 21.7404 60.3C21.8404 60.3 21.8404 60.4 21.7404 60.5C21.7404 60.5 21.6404 60.6 21.6404 60.7C21.8404 60.5 21.9404 60.5 21.9404 60.7ZM21.6404 55.3C21.6404 55.2 21.5404 55 21.4404 54.9C21.2404 55 20.9404 55.2 20.9404 55.2C21.0404 55 21.1404 54.8 21.2404 54.5C21.1404 54.5 21.1404 54.5 21.0404 54.5C21.6404 53.4 22.8404 52.8 23.5404 52.9C22.7404 53.6 21.9404 54.2 21.6404 55.3ZM23.1404 55.4C22.9404 55.2 22.8404 54.9 23.0404 54.5C23.1404 54.1 23.4404 53.9 23.7404 53.6C23.8404 53.5 24.0404 53.4 24.1404 53.3C23.9404 53.7 24.0404 54 24.1404 54.4C23.9404 54.4 23.7404 54.4 23.5404 54.4C23.5404 54.9 23.3404 55.2 23.1404 55.4ZM23.8404 55.9C23.6404 55.9 23.5404 55.9 23.4404 55.7C23.6404 55.6 23.7404 55.5 23.8404 55.3C23.9404 55.1 24.0404 54.8 24.2404 54.6C24.2404 54.7 24.3404 54.8 24.3404 54.9C24.3404 55.1 24.3404 55.3 24.2404 55.5C24.1404 55.8 24.0404 55.9 23.8404 55.9ZM24.7404 56C24.6404 56.1 24.5404 56.1 24.4404 56.1H24.3404C24.5404 55.9 24.5404 55.8 24.5404 55.6C24.5404 55.4 24.5404 55.2 24.5404 55C24.7404 55.1 24.9404 55.4 24.9404 55.7C24.9404 55.8 24.8404 55.9 24.7404 56ZM23.7404 48.8C23.8404 49 23.9404 49.2 24.0404 49.3C24.1404 49.5 24.2404 49.6 24.3404 49.8C24.4404 50 24.6404 50.3 24.7404 50.6C24.9404 51.1 24.6404 51.6 24.2404 51.8C24.1404 51.5 24.0404 51.3 23.8404 51C23.5404 50.3 23.5404 49.6 23.7404 48.8ZM21.2404 46.9C21.7404 47.3 22.1404 47.8 22.5404 48.3C22.6404 48.5 22.7404 48.8 22.6404 49C22.6404 49.1 22.6404 49.2 22.6404 49.3C23.3404 50.6 23.9404 51.9 24.3404 53.1C24.3404 53.2 24.4404 53.2 24.5404 53.3C24.6404 53.4 24.7404 53.5 24.8404 53.6C24.9404 53.8 24.9404 54 24.9404 54.2C24.9404 54.4 24.9404 54.7 24.9404 54.9C24.8404 54.9 24.5404 54.5 24.3404 54.3C24.1404 54 24.0404 53.8 24.2404 53.4V53.3C23.8404 52 23.2404 50.7 22.5404 49.4C22.4404 49.3 22.4404 49.3 22.3404 49.3C22.2404 49.3 22.0404 49.2 21.9404 49.1C21.7404 48.8 21.5404 48.5 21.3404 48.2C21.0404 47.5 20.7404 46.8 20.3404 46.2C20.3404 46.2 20.3404 46.1 20.2404 46C20.3404 46 20.3404 46.1 20.3404 46.1C20.7404 46.4 21.0404 46.6 21.2404 46.9ZM20.2404 42.5C20.4404 42.7 20.5404 42.9 20.4404 43.1C20.3404 43.3 20.1404 43.4 19.9404 43.3C19.6404 43.2 19.4404 42.9 19.4404 42.7C19.4404 42.6 19.4404 42.6 19.6404 42.6C19.6404 42.7 19.6404 42.8 19.6404 42.8C19.7404 42.9 19.8404 43 19.9404 43C20.0404 43 20.1404 43 20.1404 42.9C20.1404 42.7 20.0404 42.5 19.8404 42.4C19.7404 42.4 19.6404 42.3 19.6404 42.3C19.4404 42.3 19.2404 42.3 19.1404 42.5C19.0404 42.7 19.0404 42.9 19.1404 43.1C19.3404 43.5 19.8404 44 20.0404 44.4C20.2404 44.8 20.0404 45.1 19.7404 45.3C19.7404 45.3 19.7404 45.3 19.6404 45.3C19.8404 44.8 19.5404 44.2 19.1404 43.6C18.9404 43.3 18.7404 43 18.5404 42.6C18.4404 42.4 18.4404 42.2 18.4404 42.1C18.4404 42.1 18.4404 42 18.5404 42C18.6404 42.1 18.7404 42.2 18.7404 42.2C18.8404 41.9 18.9404 41.8 18.9404 41.8C19.0404 41.7 19.0404 41.7 19.2404 41.9C19.2404 42 19.3404 42 19.3404 42.1C19.4404 42 19.5404 41.8 19.8404 41.9C19.8404 42 19.7404 42.1 19.8404 42.1C20.0404 42.3 20.1404 42.4 20.2404 42.5ZM28.4404 16.5C27.9404 25.1 21.6404 34.4 18.7404 39C17.8404 37.6 17.0404 36.1 16.0404 34.3C21.8404 20.8 21.7404 15.7 20.8404 13.2C19.0404 8.5 13.9404 7 10.2404 8.8C10.8404 7.8 12.6404 5.8 14.7404 4.9C16.5404 4.2 17.6404 5.1 18.1404 5.3C19.2404 5.8 20.2404 6.2 21.3404 6.2C22.5404 6.2 23.1404 5.5 23.4404 5.3C23.9404 5.7 24.2404 5.8 25.4404 7.2C27.6404 9.8 28.6404 12.7 28.4404 16.5Z" fill="#D4B363"/>
<path d="M5.54041 12.7L5.64041 12C5.64041 11.9 5.64041 11.8 5.54041 11.8L4.94041 11.5H4.84041C4.84041 11.5 4.74041 11.5 4.74041 11.6L4.24041 12.1C4.14041 12.2 4.14041 12.2 4.24041 12.3L4.54041 12.9C4.54041 13 4.64041 13 4.64041 13L5.34041 12.9C5.44041 12.9 5.44041 12.8 5.54041 12.7Z" fill="#D4B363"/>
<path d="M4.84045 10.5C4.84045 10.8 5.04045 11 5.24045 11.1C5.54045 11.2 5.84045 11.1 5.94045 10.9C5.64045 10.7 5.24045 10.5 4.84045 10.5Z" fill="#D4B363"/>
<path d="M6.04041 12.4C6.04041 12.7 6.24041 12.9 6.44041 13C6.54041 12.8 6.64041 12.5 6.64041 12.3C6.64041 12.1 6.64041 12 6.54041 11.8C6.24041 11.8 6.04041 12.1 6.04041 12.4Z" fill="#D4B363"/>
<path d="M4.74042 14C4.84042 14 4.84042 14 4.94042 14C5.34042 14 5.64042 13.9 5.94042 13.7C5.84042 13.5 5.64042 13.4 5.44042 13.4C5.04042 13.5 4.74042 13.7 4.74042 14Z" fill="#D4B363"/>
<path d="M7.54044 38.4L7.84044 38.2L6.84044 36.5L6.54044 36.7L6.94044 37.4L5.14044 38.4L5.34044 38.8L7.14044 37.8L7.54044 38.4Z" fill="#D4B363"/>
<path d="M8.14043 38.7L5.94043 39.9L6.24043 40.3L7.84043 39.4L6.54043 40.9L6.74043 41.3L8.74043 40.9L7.14043 41.9L7.34043 42.3L9.54043 41L9.14043 40.4L7.34043 40.7L8.54043 39.3L8.14043 38.7Z" fill="#D4B363"/>
</svg>
